<svg xmlns="http://www.w3.org/2000/svg" width="256" height="256" viewBox="0 0 256 256" role="img" aria-label="FLCHAIN">
  <title>FLCHAIN</title>
  <rect width="256" height="256" rx="57" fill="#30B0C7"/>
  <g transform="translate(80 46) scale(4)" fill="none" stroke="#FFFFFF" stroke-width="1.9" stroke-linecap="round" stroke-linejoin="round"><path d="M6 18h8" /> <path d="M3 22h18" /> <path d="M14 22a7 7 0 1 0 0-14h-1" /> <path d="M9 14h2" /> <path d="M9 12a2 2 0 0 1-2-2V6h6v4a2 2 0 0 1-2 2Z" /> <path d="M12 6V3a1 1 0 0 0-1-1H9a1 1 0 0 0-1 1v3" /></g>
  <text x="128" y="206" text-anchor="middle" font-family="-apple-system, BlinkMacSystemFont, 'SF Pro Display', 'Segoe UI Variable Display', 'Segoe UI', 'Helvetica Neue', Helvetica, Arial, sans-serif" font-weight="600" font-size="32" letter-spacing="-0.4" fill="#FFFFFF">FLCHAIN</text>
</svg>
