<svg xmlns="http://www.w3.org/2000/svg" width="256" height="256" viewBox="0 0 256 256" role="img" aria-label="synthcity">
  <title>synthcity</title>
  <rect width="256" height="256" rx="57" fill="#30B0C7"/>
  <g transform="translate(80 46) scale(4)" fill="none" stroke="#FFFFFF" stroke-width="1.9" stroke-linecap="round" stroke-linejoin="round"><path d="m21.64 3.64-1.28-1.28a1.21 1.21 0 0 0-1.72 0L2.36 18.64a1.21 1.21 0 0 0 0 1.72l1.28 1.28a1.2 1.2 0 0 0 1.72 0L21.64 5.36a1.2 1.2 0 0 0 0-1.72" /> <path d="m14 7 3 3" /> <path d="M5 6v4" /> <path d="M19 14v4" /> <path d="M10 2v2" /> <path d="M7 8H3" /> <path d="M21 16h-4" /> <path d="M11 3H9" /></g>
  <text x="128" y="206" text-anchor="middle" font-family="-apple-system, BlinkMacSystemFont, 'SF Pro Display', 'Segoe UI Variable Display', 'Segoe UI', 'Helvetica Neue', Helvetica, Arial, sans-serif" font-weight="600" font-size="32" letter-spacing="-0.4" fill="#FFFFFF">synthcity</text>
</svg>
